<?xml version="1.0" standalone="no"?>
<!DOCTYPE svg PUBLIC "-//W3C//DTD SVG 20010904//EN"
 "http://www.w3.org/TR/2001/REC-SVG-20010904/DTD/svg10.dtd">
<svg version="1.0" xmlns="http://www.w3.org/2000/svg"
 width="800.000000pt" height="800.000000pt" viewBox="0 0 800.000000 800.000000"
 preserveAspectRatio="xMidYMid meet">
<metadata>
Created by potrace 1.14, written by Peter Selinger 2001-2017
</metadata>
<g transform="translate(0.000000,800.000000) scale(0.100000,-0.100000)"
fill="#000000" stroke="none">
<path d="M4340 5843 c-448 -256 -817 -467 -819 -468 -1 -2 20 -304 48 -672 28
-367 51 -675 51 -684 0 -9 17 -24 39 -33 l38 -18 108 61 c60 34 108 60 109 59
9 -26 47 -53 180 -133 l159 -96 329 188 c221 126 328 192 328 203 0 15 -145
111 -292 194 -21 11 -38 23 -38 26 0 3 172 102 381 220 l380 215 -5 50 c-3 28
-10 111 -16 185 -6 74 -19 252 -30 395 -11 143 -27 355 -35 470 -20 281 -18
272 -62 290 -19 8 -36 15 -37 14 0 0 -368 -210 -816 -466z m814 108 c-5 -4
-331 -191 -724 -416 -393 -224 -719 -410 -724 -413 -5 -2 -7 0 -5 6 5 14 1451
844 1458 837 2 -3 0 -9 -5 -14z m-3 -113 c2 -10 28 -338 29 -360 0 -16 -4 -28
-9 -28 -4 0 -14 71 -20 158 -7 86 -14 174 -17 195 -4 23 -2 37 5 37 6 0 11 -1
12 -2z m-75 -37 c-8 -12 -112 -71 -126 -71 -23 0 -6 17 48 47 56 32 89 42 78
24z m-661 -180 c-3 -5 -105 -67 -228 -137 -122 -69 -226 -129 -231 -132 -5 -2
-7 1 -4 8 5 15 434 268 456 269 7 1 11 -3 7 -8z m338 -133 c4 -24 9 -87 13
-140 3 -54 10 -98 14 -98 5 0 51 25 104 55 98 57 110 62 104 45 -4 -12 -221
-139 -229 -134 -3 2 -9 54 -13 116 -3 62 -9 132 -12 156 -4 25 -2 42 4 42 5 0
12 -19 15 -42z m-338 -287 c4 -71 11 -134 15 -140 5 -8 37 6 103 44 101 58
107 61 107 46 0 -9 -205 -131 -220 -131 -10 0 -18 59 -26 204 -5 82 -4 117 4
112 6 -3 13 -63 17 -135z m807 -46 c3 -49 9 -112 12 -140 l6 -50 -730 -417
c-401 -229 -730 -414 -730 -410 0 4 -7 86 -15 182 -8 96 -15 193 -15 215 l0
40 83 0 c95 0 155 23 263 101 118 83 161 91 254 44 122 -61 169 -35 329 184
40 54 91 119 114 143 42 46 163 143 178 143 4 0 18 -18 30 -40 32 -57 51 -49
69 27 16 69 21 72 100 69 l45 -1 7 -90z m-182 38 c-1 -27 -1 -27 -15 -9 -14
19 -12 36 6 36 5 0 9 -12 9 -27z m-1120 -51 c0 -7 -123 -82 -135 -82 -3 0 -5
4 -5 9 0 9 117 81 133 81 4 0 7 -4 7 -8z m-36 -81 c3 -5 -14 -21 -38 -35 -47
-27 -80 -36 -58 -14 8 8 69 47 89 57 1 1 4 -3 7 -8z"/>
<path d="M4930 5010 c-74 -43 -136 -83 -138 -88 -10 -30 31 -15 155 56 124 71
158 100 128 108 -5 1 -71 -33 -145 -76z"/>
<path d="M4873 4907 c-171 -98 -222 -137 -180 -137 24 0 392 217 395 234 2 9
-2 16 -10 15 -7 0 -100 -51 -205 -112z"/>
<path d="M3846 4418 c-16 -23 -21 -64 -10 -92 9 -24 60 -20 78 6 19 27 21 79
4 96 -19 19 -55 14 -72 -10z m45 -54 c-9 -20 -15 -24 -23 -16 -9 9 -8 18 1 38
9 20 15 24 23 16 9 -9 8 -18 -1 -38z"/>
<path d="M2610 4853 c-448 -256 -817 -467 -819 -469 -3 -2 15 -251 38 -552 23
-301 47 -605 52 -677 6 -71 11 -135 13 -140 2 -6 20 -16 39 -23 35 -13 39 -12
141 47 58 34 107 61 109 61 3 0 7 -8 10 -17 2 -10 77 -62 166 -117 l161 -98
330 188 c210 120 330 194 330 204 0 9 -66 55 -165 115 -91 55 -165 102 -165
105 0 3 171 102 380 220 380 215 380 215 375 245 -2 17 -7 75 -10 130 -3 55
-10 147 -15 205 -14 160 -29 348 -50 640 -29 383 -25 364 -66 384 -19 9 -36
16 -37 15 -1 0 -369 -210 -817 -466z m819 103 c-8 -6 -393 -221 -402 -225 -5
-2 -8 2 -6 8 6 17 403 241 408 230 1 -6 1 -11 0 -13z m-339 -93 c-1 -11 -255
-153 -273 -153 -8 0 -18 -5 -20 -10 -4 -7 -5 -7 -4 0 2 9 274 169 290 170 4 0
7 -3 7 -7z m310 -8 c0 -8 -64 -45 -77 -45 -21 0 -15 14 15 32 26 16 62 23 62
13z m0 -45 c0 -14 -78 -52 -84 -41 -4 5 9 18 26 29 37 23 58 27 58 12z m0 -43
c0 -11 -58 -47 -75 -47 -15 0 0 21 28 39 38 24 47 26 47 8z m-471 -98 c-85
-49 -99 -55 -99 -41 1 11 164 100 174 95 4 -3 -29 -27 -75 -54z m-149 21 c0
-5 -5 -10 -11 -10 -5 0 -7 5 -4 10 3 6 8 10 11 10 2 0 4 -4 4 -10z m669 -80
c-61 -34 -205 -149 -298 -235 -61 -58 -113 -105 -116 -105 -3 0 -14 5 -25 12
-16 11 -23 9 -40 -9 -20 -22 -20 -22 0 -36 19 -13 18 -15 -18 -49 -54 -51
-140 -120 -196 -158 -39 -26 -50 -30 -57 -19 -12 19 -11 39 1 39 6 0 19 9 30
20 11 11 20 17 20 14 0 -8 73 37 82 50 4 6 8 7 8 3 0 -11 60 25 60 36 0 4 4 6
8 3 14 -8 52 24 52 44 0 26 -35 35 -62 16 -30 -22 -36 -20 -31 8 3 13 0 26 -5
30 -12 7 -62 -13 -62 -26 0 -4 -3 -7 -7 -7 -33 5 -83 -42 -76 -71 3 -11 9 -20
14 -20 5 0 9 -5 9 -12 0 -6 -3 -8 -6 -5 -4 3 -16 1 -28 -5 -18 -10 -19 -9 -8
4 13 16 7 48 -10 48 -5 0 -8 14 -6 32 3 30 17 39 383 248 l380 216 9 -29 c7
-22 6 -31 -5 -37z m-529 -98 c0 -31 -5 -41 -25 -50 -20 -9 -23 -9 -18 4 3 8
-2 23 -12 34 -16 18 -15 19 12 34 40 22 43 20 43 -22z m-146 -31 c3 -5 -5 -17
-19 -27 -13 -10 -22 -21 -19 -26 3 -4 -7 -8 -23 -8 l-27 0 24 17 c36 25 50 40
43 47 -4 3 -1 6 5 6 6 0 13 -4 16 -9z m-220 -42 c-15 -10 -32 -15 -37 -12 -11
7 45 42 56 35 5 -2 -4 -13 -19 -23z m215 -40 c5 8 11 9 15 3 5 -9 -11 -20 -39
-28 -5 -1 -18 -5 -29 -10 -15 -6 -14 -2 5 17 15 15 27 20 32 14 4 -6 10 -5 16
4z m-21 -56 c-10 -2 -18 -8 -18 -13 0 -5 -16 -14 -35 -21 -19 -7 -35 -17 -35
-21 0 -4 -4 -8 -10 -8 -5 0 -10 4 -10 10 0 12 89 59 110 58 10 0 10 -2 -2 -5z
m692 -51 c0 -11 -380 -225 -387 -218 -9 8 -19 2 187 119 187 107 200 113 200
99z m-440 -37 c-7 -8 -17 -12 -22 -9 -6 4 -5 10 3 15 22 14 33 10 19 -6z m446
-82 c-18 -18 -152 -90 -159 -86 -11 6 -13 5 68 52 61 36 112 54 91 34z m-1110
-82 c-10 -15 -118 -73 -124 -66 -4 4 0 11 8 15 8 5 33 20 55 34 41 25 71 33
61 17z"/>
<path d="M5584 4943 c5 -33 5 -33 -34 -33 -74 0 -191 -75 -239 -154 -35 -56
-23 -144 36 -278 25 -56 25 -59 9 -98 -9 -22 -16 -54 -16 -70 0 -21 -8 -35
-26 -47 -22 -14 -25 -22 -20 -52 3 -20 10 -67 15 -104 7 -53 16 -77 38 -105
48 -60 110 -102 149 -102 42 0 51 17 31 57 -8 15 -18 42 -21 59 -7 30 -5 32
26 37 22 3 48 -3 79 -19 108 -54 246 -68 369 -36 l65 17 42 85 c53 105 72 178
80 295 7 105 -13 192 -52 230 l-23 24 24 3 c37 5 29 23 -11 26 l-35 3 0 52 c0
103 -59 151 -184 147 -104 -4 -107 -3 -104 23 4 31 -14 35 -29 6 -21 -41 -97
-22 -151 40 l-23 26 5 -32z m-110 -596 c17 -23 21 -43 21 -104 0 -67 -3 -77
-24 -94 -21 -17 -26 -18 -45 -6 -47 31 -69 136 -42 200 13 33 20 38 42 35 15
-2 36 -15 48 -31z"/>
<path d="M5406 4348 c-32 -45 -10 -179 32 -196 41 -15 58 111 24 177 -21 43
-36 48 -56 19z"/>
<path d="M7679 4114 c-174 -68 -507 -202 -740 -297 l-424 -173 -17 69 c-21 81
-44 122 -98 171 -50 45 -104 72 -182 92 -90 23 -150 14 -191 -29 -39 -42 -83
-56 -302 -98 -220 -42 -320 -90 -457 -218 -38 -35 -75 -61 -87 -61 -30 0 -132
37 -149 54 -17 16 -8 51 14 60 8 3 28 -1 44 -9 48 -25 70 -20 70 16 0 52 -88
119 -155 119 -37 0 -65 17 -65 40 0 26 28 39 70 32 l35 -5 -19 22 c-24 26 -52
27 -93 1 -28 -17 -33 -25 -33 -59 0 -31 7 -45 30 -67 22 -22 31 -40 36 -81 3
-29 15 -64 25 -77 16 -20 89 -54 172 -80 18 -6 17 -7 -2 -34 -25 -36 -282
-512 -328 -609 l-35 -72 -104 -58 c-57 -32 -104 -60 -104 -64 0 -6 130 -49
148 -49 7 0 24 25 39 55 15 30 30 55 33 55 3 0 14 -13 23 -30 40 -68 162 -140
274 -162 32 -7 59 -13 60 -13 4 -2 -113 -259 -128 -283 -7 -11 -30 -30 -52
-42 -31 -18 -51 -21 -100 -18 -57 3 -84 15 -340 151 -153 81 -281 147 -284
147 -6 0 -298 -168 -979 -562 l-489 -282 -60 -1 c-60 0 -60 0 -390 191 -181
105 -340 196 -353 203 -18 10 -53 5 -200 -28 -485 -109 -1044 -211 -1554 -282
l-238 -34 0 -357 0 -358 4000 0 4000 0 0 1620 c0 891 -1 1620 -2 1619 -2 0
-145 -57 -319 -125z"/>
<path d="M3860 3217 c-457 -346 -505 -385 -505 -411 0 -27 8 -32 215 -123 118
-52 218 -95 221 -96 4 -1 37 20 74 48 57 43 64 51 50 61 -9 7 -40 15 -68 19
-82 10 -89 13 -85 43 3 26 4 27 76 27 39 0 72 3 72 7 0 18 -45 29 -89 23 -38
-5 -52 -3 -70 12 -20 17 -22 23 -12 41 9 18 21 22 59 22 l47 1 -50 17 c-36 12
-51 23 -53 38 -5 33 20 47 62 36 30 -9 37 -7 48 9 9 14 30 21 74 25 l60 6 38
-43 38 -44 -7 52 c-6 47 -5 52 16 64 20 10 25 9 41 -11 10 -12 18 -28 18 -36
0 -7 9 -38 21 -69 15 -40 25 -55 35 -51 8 3 151 109 319 236 271 205 305 234
305 259 0 26 -10 31 -207 119 -115 50 -215 93 -223 96 -9 4 -203 -137 -520
-377z"/>
<path d="M2778 2550 c-78 -49 -98 -66 -98 -85 0 -19 34 -44 200 -150 110 -70
208 -129 217 -131 11 -3 59 21 116 56 76 49 97 66 97 84 0 19 -36 46 -201 151
-110 70 -208 129 -217 131 -9 3 -61 -23 -114 -56z"/>
</g>
</svg>
